<?xml version="1.0" encoding="UTF-8" standalone="no"?>
<!DOCTYPE svg PUBLIC "-//W3C//DTD SVG 1.1//EN" "http://www.w3.org/Graphics/SVG/1.1/DTD/svg11.dtd">
<svg viewBox="0 0 80 80" xmlns="http://www.w3.org/2000/svg" xmlns:xlink="http://www.w3.org/1999/xlink">
  <!-- <path d="M0 0L80 0L80 80L0 80L0 0Z" fill="#ffffff" fill-rule="nonzero" opacity="1" stroke="none" /> -->
  <path d="M38.5716 53.5181L38.5716 60.3607L15.8844 60.3607L15.8844 53.5181L38.5716 53.5181ZM18.734 17.7045L18.734 60.3607L9.94355 60.3607L9.94355 17.7045L18.734 17.7045ZM35.6232 35.0917L35.6232 41.7554L15.8844 41.7554L15.8844 35.0917L35.6232 35.0917ZM38.5368 17.7045L38.5368 24.5764L15.8844 24.5764L15.8844 17.7045L38.5368 17.7045Z" fill="#01befe" />
  <path d="M68.8246 25.4601L68.8246 30.3801L49.3324 30.3801L49.3324 25.4601L68.8246 25.4601ZM61.7683 17.7547L61.7683 38.4578L56.4348 38.4578L56.4348 17.7547L61.7683 17.7547Z" fill="#f5891d" />
</svg>