<?xml version="1.0" encoding="UTF-8" standalone="no"?>
<!DOCTYPE svg PUBLIC "-//W3C//DTD SVG 1.1//EN" "http://www.w3.org/Graphics/SVG/1.1/DTD/svg11.dtd">
<svg height="80.0pt" version="1.1" viewBox="0 0 80 80" xmlns="http://www.w3.org/2000/svg" xmlns:xlink="http://www.w3.org/1999/xlink">
  <g transform="matrix(1 0 0 1 0 0)">
    <g opacity="1">
      <path d="M75 33.6308L75 35.2922L67.1029 35.2922L67.1029 33.6308L75 33.6308ZM71.9792 30.4925L71.9792 38.6364L70.1374 38.6364L70.1374 30.4925L71.9792 30.4925Z" fill="#f5891d" fill-rule="nonzero" opacity="1" stroke="none" />
      <path d="M18.2554 46.4024L18.2554 49.4785L7.75074 49.4785L7.75074 46.4024L18.2554 46.4024ZM9.07016 30.3019L9.07016 49.4785L5 49.4785L5 30.3019L9.07016 30.3019ZM16.8902 38.1186L16.8902 41.1143L7.75074 41.1143L7.75074 38.1186L16.8902 38.1186ZM18.2393 30.3019L18.2393 33.3913L7.75074 33.3913L7.75074 30.3019L18.2393 30.3019Z" fill="#f5891d" />
      <path d="M23.3159 40.1383L23.3159 49.4785L20.0605 49.4785L20.0605 37.6029L23.1186 37.6029L23.3159 40.1383ZM22.8493 43.1204L21.9635 43.1247C21.9659 42.2481 22.0826 41.4567 22.3136 40.7503C22.5445 40.0439 22.8708 39.4396 23.2926 38.9373C23.7144 38.4351 24.2184 38.0505 24.8046 37.7837C25.3909 37.5168 26.0431 37.3834 26.7612 37.3834C27.3386 37.3834 27.8646 37.4633 28.3392 37.6231C28.8139 37.7828 29.2227 38.0397 29.5656 38.3935C29.9085 38.7474 30.1716 39.2117 30.355 39.7866C30.5384 40.3614 30.6301 41.0676 30.6301 41.905L30.6301 49.4785L27.3558 49.4785L27.3558 41.8906C27.3558 41.3678 27.2794 40.9601 27.1268 40.6675C26.9741 40.375 26.7526 40.1687 26.4624 40.0489C26.1721 39.929 25.8168 39.869 25.3964 39.869C24.9633 39.869 24.5862 39.9528 24.2651 40.1204C23.944 40.2879 23.6793 40.5199 23.4711 40.8162C23.2628 41.1126 23.1071 41.457 23.004 41.8495C22.9008 42.242 22.8493 42.6656 22.8493 43.1204Z" fill="#01befe" />
      <path d="M40.3366 46.6379L40.3366 37.6029L43.6035 37.6029L43.6035 49.4785L40.5379 49.4785L40.3366 46.6379ZM40.7093 44.195L41.6639 44.173C41.6639 44.9683 41.5702 45.7032 41.3828 46.3776C41.1954 47.052 40.912 47.6368 40.5326 48.1321C40.1532 48.6273 39.6775 49.0121 39.1054 49.2865C38.5333 49.5609 37.8612 49.6981 37.0891 49.6981C36.4887 49.6981 35.9391 49.6151 35.4403 49.4493C34.9416 49.2835 34.5126 49.0237 34.1532 48.67C33.7939 48.3164 33.5156 47.859 33.3184 47.2981C33.1212 46.7371 33.0226 46.064 33.0226 45.2788L33.0226 37.6029L36.278 37.6029L36.278 45.3008C36.278 45.6514 36.321 45.9473 36.407 46.1883C36.493 46.4293 36.6141 46.6256 36.7702 46.7772C36.9263 46.9288 37.1125 47.0386 37.329 47.1068C37.5455 47.1749 37.7842 47.209 38.045 47.209C38.7198 47.209 39.2509 47.076 39.6381 46.8099C40.0253 46.5439 40.3007 46.1831 40.4641 45.7276C40.6275 45.2721 40.7093 44.7613 40.7093 44.195Z" fill="#01befe" />
      <path d="M49.3271 40.0668L49.3271 49.4785L46.068 49.4785L46.068 37.6029L49.1298 37.6029L49.3271 40.0668ZM48.8746 43.1204L47.9713 43.1247C47.9738 42.2976 48.078 41.5347 48.2839 40.8358C48.4897 40.1369 48.7948 39.5288 49.1991 39.0117C49.6034 38.4945 50.1031 38.0938 50.698 37.8097C51.293 37.5255 51.9821 37.3834 52.7654 37.3834C53.3126 37.3834 53.812 37.4621 54.2637 37.6194C54.7154 37.7767 55.1056 38.0224 55.4342 38.3566C55.7629 38.6907 56.0162 39.1224 56.1943 39.6517C56.3724 40.181 56.4615 40.8163 56.4615 41.5577L56.4615 49.4785L53.2061 49.4785L53.2061 41.9093C53.2061 41.3667 53.1318 40.9485 52.9834 40.6546C52.835 40.3607 52.6236 40.1563 52.3491 40.0414C52.0747 39.9265 51.7452 39.869 51.3606 39.869C50.9367 39.869 50.5686 39.9528 50.2562 40.1204C49.9438 40.2879 49.6849 40.5199 49.4796 40.8162C49.2743 41.1126 49.1222 41.457 49.0231 41.8495C48.9241 42.242 48.8746 42.6656 48.8746 43.1204ZM56.1632 42.7596L54.9912 42.9088C54.9936 42.1336 55.0945 41.4114 55.294 40.742C55.4935 40.0726 55.7909 39.4864 56.1863 38.9834C56.5817 38.4804 57.0732 38.088 57.6608 37.8061C58.2484 37.5243 58.9277 37.3834 59.6987 37.3834C60.2881 37.3834 60.8231 37.4651 61.3037 37.6284C61.7843 37.7917 62.196 38.0509 62.5388 38.4059C62.8815 38.7609 63.1459 39.2252 63.3318 39.7989C63.5178 40.3726 63.6107 41.0723 63.6107 41.898L63.6107 49.4785L60.344 49.4785L60.344 41.891C60.344 41.344 60.2698 40.9255 60.1214 40.6353C59.973 40.3451 59.7622 40.1449 59.489 40.0345C59.2158 39.9242 58.8907 39.869 58.5139 39.869C58.1206 39.869 57.7775 39.9434 57.4846 40.0921C57.1917 40.2408 56.9464 40.4462 56.7486 40.7083C56.5508 40.9704 56.4038 41.2758 56.3076 41.6247C56.2113 41.9736 56.1632 42.3519 56.1632 42.7596Z" fill="#01befe" />
    </g>
  </g>
</svg>